# AST/ASF file generated using VICON BodyLanguage
# -----------------------------------------------
:version 1.10
:name VICON
:units
  mass 1.0
  length 0.45
  angle deg
:documentation
   .ast/.asf automatically generated from VICON data using
   VICON BodyBuilder and BodyLanguage model FoxedUp or BRILLIANT.MOD
:root
   order TX TY TZ RX RY RZ
   axis XYZ
   position 0 0 0  
   orientation 0 0 0 
:bonedata
  begin
     id 1 
     name lhipjoint
     direction 0.646657 -0.683706 0.338203 
     length 2.4948 
     axis 0 0 0  XYZ
  end
  begin
     id 2 
     name lfemur
     direction 0.34202 -0.939693 0  
     length 6.79491  
     axis 0 0 20  XYZ
    dof rx ry rz
    limits (-160.0 20.0)
           (-70.0 70.0)
           (-60.0 70.0)
  end
  begin
     id 3 
     name ltibia
     direction 0.34202 -0.939693 0   
     length 7.56807   
     axis 0 0 20   XYZ
    dof rx
    limits (-10.0 170.0)
  end
  begin
     id 4 
     name lfoot
     direction 0.0679796 -0.186772 0.980048   
     length 2.53018   
     axis -90 7.62852e-016 20   XYZ
    dof rx rz
    limits (-45.0 90.0)
           (-70.0 20.0)
  end
  begin
     id 5 
     name ltoes
     direction 1.53625e-011 -4.21881e-011 1   
     length 1.26912   
     axis -90 7.62852e-016 20   XYZ
    dof rx
    limits (-90.0 20.0)
  end
  begin
     id 6 
     name rhipjoint
     direction -0.618868 -0.704065 0.348274   
     length 2.42265  
     axis 0 0 0  XYZ 
  end
  begin
     id 7 
     name rfemur
     direction -0.34202 -0.939693 0   
     length 6.73814   
     axis 0 0 -20   XYZ
    dof rx ry rz
    limits (-160.0 20.0)
           (-70.0 70.0)
           (-70.0 60.0)
  end
  begin
     id 8 
     name rtibia
     direction -0.34202 -0.939693 0   
     length 7.66799   
     axis 0 0 -20   XYZ
    dof rx
    limits (-10.0 170.0)
 end
 begin
     id 9 
     name rfoot
     direction -0.0727352 -0.199838 0.977125   
     length 2.57224  
     axis -90 -7.62852e-016 -20   XYZ
    dof rx rz
    limits (-45.0 90.0)
           (-20.0 70.0)
  end
  begin
     id 10 
     name rtoes
     direction -1.53501e-011 -4.21858e-011 1   
     length 1.28858   
     axis -90 -7.62852e-016 -20   XYZ
    dof rx
    limits (-90.0 20.0)
  end
  begin
     id 11 
     name lowerback
     direction -0.0172471 0.995767 -0.0902851   
     length 2.20206   
     axis 0 0 0   XYZ
    dof rx ry rz
    limits (-20.0 45.0)
           (-30.0 30.0)
           (-30.0 30.0)
  end
  begin
     id 12 
     name upperback
     direction -0.000110737 0.999714 0.0239043   
     length 2.19523   
     axis 0 0 0   XYZ
    dof rx ry rz
    limits (-20.0 45.0)
           (-30.0 30.0)
           (-30.0 30.0)
  end
  begin
     id 13 
     name thorax
     direction 0.00704869 0.997783 0.0661741   
     length 2.21977   
     axis 0 0 0   XYZ
    dof rx ry rz
    limits (-20.0 45.0)
           (-30.0 30.0)
           (-30.0 30.0)
  end
  begin
     id 14 
     name lowerneck
     direction -0.00407501 0.995527 0.0943846   
     length 1.83142   
     axis 0 0 0   XYZ
    dof rx ry rz
    limits (-20.0 45.0)
           (-30.0 30.0)
           (-30.0 30.0)
  end
  begin
     id 15 
     name upperneck
     direction 0.0640586 0.986486 -0.150807   
     length 1.84616   
     axis 0 0 0   XYZ
    dof rx ry rz
    limits (-20.0 45.0)
           (-30.0 30.0)
           (-30.0 30.0)
  end
  begin
     id 16
     name head
     direction 0.0188017 0.99791 -0.0618239  
     length 1.85932  
     axis 0 0 0   XYZ
    dof rx ry rz
    limits (-20.0 45.0)
           (-30.0 30.0)
           (-30.0 30.0)
  end
  begin
     id 17 
     name lclavicle
     direction 0.976074 0.206905 0.066852  
     length 3.81043  
     axis 0 0 0   XYZ
    dof ry rz
    limits (-20.0 10.0)
           (0.0 20.0)
  end
  begin
     id 18 
     name lhumerus
     direction 1 -4.48971e-011 1.86916e-027   
     length 5.37587   
     axis 180 -30 -90   XYZ
    dof rx ry rz
    limits (-60.0 90.0)
           (-90.0 90.0)
           (-90.0 90.0)
  end
  begin
     id 19
     name lradius
     direction 1 -4.48968e-011 1.69187e-027   
     length 3.35977   
     axis 180 -30 -90   XYZ
    dof rx
    limits (-10.0 170.0)
  end
  begin
     id 20
     name lwrist
     direction 1 -4.48968e-011 5.8978e-027   
     length 1.67988   
     axis -3.27506e-015 90 90   XYZ
    dof ry
    limits (-180.0 0.0)
 end
  begin
     id 21 
     name lhand
     direction 1 -4.49028e-011 1.18071e-026   
     length 0.561859   
     axis -7.52654e-015 90 90   XYZ
    dof rx rz
    limits (-90.0 90.0)
           (-45.0 45.0)
  end
  begin
     id 22 
     name lfingers
     direction 1 -4.48927e-011 2.35758e-026   
     length 0.452985   
     axis -1.50534e-014 90 90   XYZ
    dof rx
    limits (0.0 90.0)
  end
  begin
     id 23
     name lthumb
     direction 0.707107 -6.34898e-011 0.707107   
     length 0.650399   
     axis -90 45 5.69224e-014   XYZ
    dof rx rz
    limits (-45.0 45.0)
           (-45.0 45.0)
  end
  begin
     id 24 
     name rclavicle
     direction -0.988403 0.151789 0.00439714   
     length 3.6942  
     axis 0 0 0   XYZ 
    dof ry rz
    limits (-10.0 20.0)
           (-20.0 0.0)
  end
  begin
     id 25 
     name rhumerus
     direction -1 -4.48978e-011 1.62495e-027  
     length 5.22819   
     axis 180 30 90   XYZ
    dof rx ry rz
    limits (-90.0 60.0)
           (-90.0 90.0)
           (-90.0 90.0)
  end
  begin
     id 26 
     name rradius
     direction -1 -4.48961e-011 3.47796e-027   
     length 3.40764   
     axis 180 30 90   XYZ
    dof rx
    limits (-10.0 170.0)
  end
  begin
     id 27 
     name rwrist
     direction -1 -4.48949e-011 5.89602e-027   
     length 1.70382   
     axis -3.27506e-015 -90 -90   XYZ
    dof ry
    limits (-180.0 0.0)
  end
  begin
     id 28
     name rhand
     direction -1 -4.48977e-011 1.17973e-026   
     length 0.583255   
     axis -7.52654e-015 -90 -90   XYZ
    dof rx rz
    limits (-90.0 90.0)
           (-45.0 45.0)
  end
  begin
     id 29
     name rfingers
     direction -1 -4.49099e-011 2.36408e-026   
     length 0.470235   
     axis -1.50534e-014 -90 -90   XYZ
    dof rx
    limits (0.0 90.0)
  end
  begin
     id 30
     name rthumb
     direction -0.707107 -6.35011e-011 0.707107   
     length 0.675167   
     axis -90 -45 -5.69224e-014   XYZ
    dof rx rz
    limits (-45.0 45.0)
           (-45.0 45.0)
  end
:hierarchy
  begin
    root lhipjoint rhipjoint lowerback
    lhipjoint lfemur
    lfemur ltibia
    ltibia lfoot
    lfoot ltoes
    rhipjoint rfemur
    rfemur rtibia
    rtibia rfoot
    rfoot rtoes
    lowerback upperback
    upperback thorax
    thorax lowerneck lclavicle rclavicle
    lowerneck upperneck
    upperneck head
    lclavicle lhumerus
    lhumerus lradius
    lradius lwrist
    lwrist lhand lthumb
    lhand lfingers
    rclavicle rhumerus
    rhumerus rradius
    rradius rwrist
    rwrist rhand rthumb
    rhand rfingers
  end

#!OML:ASF G:\JayActor3\Patient Classification 1\Patient 1\Session 2\male.ASF
:FULLY-SPECIFIED
:DEGREES
164
root 48.345 16.5196 -7.1415 70.0832 -88.4162 -71.4915
lowerback 0.0974868 -0.29627 -1.36611
upperback 4.39027 -0.471524 0.986378
thorax 4.48921 -0.338833 1.76324
lowerneck -8.17494 -1.95653 -2.77282
upperneck 2.02236 -2.64573 6.20758
head 2.21764 -1.18518 2.38165
rclavicle 2.29845e-015 -1.59028e-015
rhumerus -34.9279 1.83276 -85.1543
rradius 35.494
rwrist -6.07322
rhand -24.1231 2.59108
rfingers 7.12502
rthumb 2.3585 -27.3756
lclavicle 2.29845e-015 -1.59028e-015
lhumerus -31.0298 -6.87032 89.6441
lradius 45.2659
lwrist 15.773
lhand -14.7014 19.9814
lfingers 7.12502
lthumb 11.4528 49.6486
rfemur -11.9716 -0.772987 20.9532
rtibia 38.2158
rfoot -25.4212 -6.87279
rtoes 18.0518
lfemur -5.80201 5.48797 -18.8084
ltibia 28.4474
lfoot -18.1391 7.37675
ltoes -7.57555
165
root 48.3531 16.513 -7.12987 75.9049 -88.4501 -77.3789
lowerback 0.263799 -0.283259 -1.38379
upperback 4.51735 -0.460987 0.988463
thorax 4.52726 -0.337931 1.77623
lowerneck -8.16243 -1.93576 -2.74389
upperneck 1.94232 -2.61985 6.2354
head 2.1875 -1.17298 2.3863
rclavicle -4.83606e-015 9.19379e-016
rhumerus -34.8438 1.93355 -85.1279
rradius 35.6333
rwrist -6.2309
rhand -24.35 2.6144
rfingers 7.12502
rthumb 2.13935 -27.3546
lclavicle -4.83606e-015 9.19379e-016
lhumerus -30.7684 -7.28514 89.6638
lradius 46.3304
lwrist 15.8277
lhand -14.8113 19.7159
lfingers 7.12502
lthumb 11.3467 49.389
rfemur -12.0494 -0.663565 20.9283
rtibia 38.3962
rfoot -25.4144 -6.84724
rtoes 17.97
lfemur -5.83756 5.59911 -18.8333
ltibia 28.6345
lfoot -18.2195 7.41193
ltoes -7.62356
166
root 48.3613 16.5062 -7.11784 81.9918 -88.4755 -83.5314
lowerback 0.438813 -0.2707 -1.41094
upperback 4.64034 -0.450922 0.986254
thorax 4.55623 -0.337503 1.7901
lowerneck -8.1318 -1.9115 -2.70567
upperneck 1.86651 -2.59027 6.25776
head 2.15495 -1.15923 2.3876
rclavicle -1.68656e-015 2.48481e-017
rhumerus -34.768 2.03023 -85.1008
rradius 35.777
rwrist -6.43445
rhand -24.5402 2.65845
rfingers 7.12502
rthumb 1.95567 -27.3123
lclavicle -1.68656e-015 2.48481e-017
lhumerus -30.5115 -7.69532 89.6657
lradius 47.4319
lwrist 15.876
lhand -14.8825 19.5449
lfingers 7.12502
lthumb 11.2781 49.2217
rfemur -12.1367 -0.557311 20.8929
rtibia 38.5894
rfoot -25.404 -6.82193
rtoes 17.8726
lfemur -5.87533 5.71722 -18.8667
ltibia 28.8234
lfoot -18.2945 7.43906
ltoes -7.68857
167
root 48.3697 16.499 -7.1054 88.2269 -88.492 -89.8306
lowerback 0.619254 -0.260665 -1.45096
upperback 4.76152 -0.444133 0.980614
thorax 4.58054 -0.339189 1.80752
lowerneck -8.09271 -1.88231 -2.66024
upperneck 1.79631 -2.55498 6.2781
head 2.12227 -1.14271 2.38718
rclavicle 5.69021e-015 9.44227e-016
rhumerus -34.6936 2.1256 -85.0723
rradius 35.9299
rwrist -6.67653
rhand -24.6772 2.69367
rfingers 7.12502
rthumb 1.82333 -27.2783
lclavicle 5.69021e-015 9.44227e-016
lhumerus -30.2531 -8.10017 89.6501
lradius 48.5692
lwrist 15.9149
lhand -14.8973 19.5458
lfingers 7.12502
lthumb 11.2638 49.2234
rfemur -12.2338 -0.454019 20.8456
rtibia 38.7946
rfoot -25.3911 -6.79808
rtoes 17.7479
lfemur -5.9182 5.84079 -18.91
ltibia 29.0169
lfoot -18.3671 7.45553
ltoes -7.76712
168
root 48.3782 16.4916 -7.09265 94.5964 -88.4927 -96.26
lowerback 0.797152 -0.252292 -1.49718
upperback 4.88451 -0.43975 0.974077
thorax 4.60842 -0.342502 1.82737
lowerneck -8.04439 -1.84787 -2.61163
upperneck 1.7228 -2.51278 6.29673
head 2.0864 -1.12299 2.38588
rclavicle 3.83903e-015 2.5345e-015
rhumerus -34.6102 2.21585 -85.0387
rradius 36.0877
rwrist -6.93128
rhand -24.7593 2.71049
rfingers 7.12502
rthumb 1.74401 -27.2621
lclavicle 3.83903e-015 2.5345e-015
lhumerus -29.9792 -8.49756 89.6188
lradius 49.7264
lwrist 15.9347
lhand -14.9471 19.4878
lfingers 7.12502
lthumb 11.2157 49.168
rfemur -12.3424 -0.350612 20.7942
rtibia 39.0104
rfoot -25.3763 -6.77547
rtoes 17.6068
lfemur -5.97111 5.97103 -18.9564
ltibia 29.2182
lfoot -18.4369 7.46609
ltoes -7.85419
169
root 48.3868 16.4838 -7.07954 101.067 -88.4733 -102.787
lowerback 0.967922 -0.244684 -1.54638
upperback 5.01176 -0.436715 0.967773
thorax 4.64501 -0.346924 1.84903
lowerneck -7.98702 -1.81024 -2.55943
upperneck 1.64342 -2.46642 6.31514
head 2.04672 -1.10147 2.38397
rclavicle -4.8081e-015 2.28602e-015
rhumerus -34.5158 2.30325 -85.0004
rradius 36.2464
rwrist -7.16783
rhand -24.7997 2.71569
rfingers 7.12502
rthumb 1.70506 -27.2572
lclavicle -4.8081e-015 2.28602e-015
lhumerus -29.6828 -8.88515 89.5731
lradius 50.8965
lwrist 15.9327
lhand -15.038 19.3538
lfingers 7.12502
lthumb 11.1281 49.0387
rfemur -12.4621 -0.247163 20.7411
rtibia 39.2351
rfoot -25.3577 -6.7503
rtoes 17.4539
lfemur -6.03524 6.10794 -19.0036
ltibia 29.4298
lfoot -18.5064 7.47808
ltoes -7.95669
170
root 48.3954 16.4758 -7.06603 107.431 -88.432 -109.202
lowerback 1.12912 -0.238157 -1.59641
upperback 5.14571 -0.435549 0.961956
thorax 4.69426 -0.352744 1.87152
lowerneck -7.91458 -1.76869 -2.50297
upperneck 1.5484 -2.41436 6.32902
head 1.99874 -1.07772 2.37985
rclavicle 1.72073e-015 -6.11263e-015
rhumerus -34.4075 2.39328 -84.9592
rradius 36.404
rwrist -7.37047
rhand -24.8164 2.70752
rfingers 7.12502
rthumb 1.68886 -27.2655
lclavicle 1.72073e-015 -6.11263e-015
lhumerus -29.3576 -9.25784 89.5109
lradius 52.0752
lwrist 15.902
lhand -15.16 19.1908
lfingers 7.12502
lthumb 11.0104 48.882
rfemur -12.5921 -0.14486 20.6874
rtibia 39.4672
rfoot -25.3349 -6.72492
rtoes 17.2801
lfemur -6.11231 6.24814 -19.0517
ltibia 29.6534
lfoot -18.5785 7.49891
ltoes -8.0685
